<svg width="17" height="16" viewBox="0 0 17 16" fill="none" xmlns="http://www.w3.org/2000/svg">
<path d="M9.70001 2H4.90001C4.58175 2 4.27653 2.12643 4.05148 2.35147C3.82644 2.57652 3.70001 2.88174 3.70001 3.2V12.8C3.70001 13.1183 3.82644 13.4235 4.05148 13.6485C4.27653 13.8736 4.58175 14 4.90001 14H12.1C12.4183 14 12.7235 13.8736 12.9485 13.6485C13.1736 13.4235 13.3 13.1183 13.3 12.8V5.6L9.70001 2Z" stroke="#287EFF" stroke-width="1.5" stroke-linecap="round" stroke-linejoin="round"/>
<path d="M10.9 11H6.09998" stroke="#287EFF" stroke-width="1.2" stroke-linecap="round" stroke-linejoin="round"/>
<path d="M10.9 8.6001H6.09998" stroke="#287EFF" stroke-width="1.2" stroke-linecap="round" stroke-linejoin="round"/>
<path d="M7.29998 6.19995H6.69998H6.09998" stroke="#287EFF" stroke-width="1.2" stroke-linecap="round" stroke-linejoin="round"/>
<path d="M9.70001 2V5.6H13.3" stroke="#287EFF" stroke-width="1.2" stroke-linecap="round" stroke-linejoin="round"/>
</svg>
