<svg width="24" height="24" viewBox="0 0 24 24" fill="none" xmlns="http://www.w3.org/2000/svg">
<g id="nano-technology">
<path id="Vector" fill-rule="evenodd" clip-rule="evenodd" d="M12 4C12.5523 4 13 4.44772 13 5V10C13 10.5523 12.5523 11 12 11C11.4477 11 11 10.5523 11 10V5C11 4.44772 11.4477 4 12 4ZM4.14251 7.4855C4.42665 7.01192 5.04091 6.85836 5.51449 7.14251L10.5145 10.1425C10.9881 10.4267 11.1416 11.0409 10.8575 11.5145C10.6732 11.8217 10.35 11.9942 10.0164 12C10.35 12.0058 10.6732 12.1783 10.8575 12.4855C11.1416 12.9591 10.9881 13.5733 10.5145 13.8575L5.51449 16.8575C5.04091 17.1416 4.42665 16.9881 4.14251 16.5145C3.85836 16.0409 4.01192 15.4267 4.4855 15.1425L9.4855 12.1425C9.64128 12.049 9.81229 12.0029 9.98175 12C9.81229 11.9971 9.64128 11.951 9.4855 11.8575L4.4855 8.85749C4.01192 8.57334 3.85836 7.95908 4.14251 7.4855ZM19.8575 7.4855C20.1416 7.95908 19.9881 8.57334 19.5145 8.85749L14.5145 11.8575C14.3587 11.951 14.1877 11.9971 14.0182 12C14.1877 12.0029 14.3587 12.049 14.5145 12.1425L19.5145 15.1425C19.9881 15.4267 20.1416 16.0409 19.8575 16.5145C19.5733 16.9881 18.9591 17.1416 18.4855 16.8575L13.4855 13.8575C13.0119 13.5733 12.8584 12.9591 13.1425 12.4855C13.3268 12.1783 13.65 12.0058 13.9836 12C13.65 11.9942 13.3268 11.8217 13.1425 11.5145C12.8584 11.0409 13.0119 10.4267 13.4855 10.1425L18.4855 7.14251C18.9591 6.85836 19.5733 7.01192 19.8575 7.4855ZM12 13C12.5523 13 13 13.4477 13 14V19C13 19.5523 12.5523 20 12 20C11.4477 20 11 19.5523 11 19V14C11 13.4477 11.4477 13 12 13Z" fill="#144EE1"/>
<path id="Vector_2" fill-rule="evenodd" clip-rule="evenodd" d="M11.3944 3.053C11.6414 3.54698 11.4412 4.14765 10.9472 4.39464L4.94721 7.39464C4.45324 7.64163 3.85256 7.44141 3.60557 6.94743C3.35858 6.45345 3.55881 5.85278 4.05279 5.60579L10.0528 2.60579C10.5468 2.3588 11.1474 2.55902 11.3944 3.053ZM12.6056 3.053C12.8526 2.55902 13.4532 2.3588 13.9472 2.60579L19.9472 5.60579C20.4412 5.85278 20.6414 6.45345 20.3944 6.94743C20.1474 7.44141 19.5468 7.64163 19.0528 7.39464L13.0528 4.39464C12.5588 4.14765 12.3586 3.54698 12.6056 3.053ZM3.5 8.00023C4.05228 8.00023 4.5 8.44794 4.5 9.00023V15.0002C4.5 15.5525 4.05228 16.0002 3.5 16.0002C2.94772 16.0002 2.5 15.5525 2.5 15.0002V9.00023C2.5 8.44794 2.94772 8.00023 3.5 8.00023ZM20.5 8.00023C21.0523 8.00023 21.5 8.44794 21.5 9.00023V14.5002C21.5 15.0525 21.0523 15.5002 20.5 15.5002C19.9477 15.5002 19.5 15.0525 19.5 14.5002V9.00023C19.5 8.44794 19.9477 8.00023 20.5 8.00023ZM3.60557 17.053C3.85256 16.559 4.45324 16.3588 4.94721 16.6058L10.9472 19.6058C11.4412 19.8528 11.6414 20.4534 11.3944 20.9474C11.1474 21.4414 10.5468 21.6416 10.0528 21.3946L4.05279 18.3946C3.55881 18.1476 3.35858 17.547 3.60557 17.053ZM19.8779 17.0214C20.1424 17.5062 19.9637 18.1136 19.4789 18.3781L13.9789 21.3781C13.494 21.6426 12.8866 21.4639 12.6221 20.9791C12.3576 20.4942 12.5363 19.8868 13.0211 19.6223L18.5211 16.6223C19.006 16.3578 19.6134 16.5365 19.8779 17.0214Z" fill="#144EE1"/>
<path id="Vector_3" d="M9.5 3.5C9.5 2.11929 10.6193 1 12 1C13.3807 1 14.5 2.11929 14.5 3.5C14.5 4.88071 13.3807 6 12 6C10.6193 6 9.5 4.88071 9.5 3.5Z" fill="#144EE1"/>
<path id="Vector_4" d="M1 7.5C1 6.11929 2.11929 5 3.5 5C4.88071 5 6 6.11929 6 7.5C6 8.88071 4.88071 10 3.5 10C2.11929 10 1 8.88071 1 7.5Z" fill="#144EE1"/>
<path id="Vector_5" d="M18 7.5C18 6.11929 19.1193 5 20.5 5C21.8807 5 23 6.11929 23 7.5C23 8.88071 21.8807 10 20.5 10C19.1193 10 18 8.88071 18 7.5Z" fill="#144EE1"/>
<path id="Vector_6" d="M1 16.5C1 15.1193 2.11929 14 3.5 14C4.88071 14 6 15.1193 6 16.5C6 17.8807 4.88071 19 3.5 19C2.11929 19 1 17.8807 1 16.5Z" fill="#144EE1"/>
<path id="Vector_7" d="M18 16.5C18 15.1193 19.1193 14 20.5 14C21.8807 14 23 15.1193 23 16.5C23 17.8807 21.8807 19 20.5 19C19.1193 19 18 17.8807 18 16.5Z" fill="#144EE1"/>
<path id="Vector_8" d="M9.5 20.5C9.5 19.1193 10.6193 18 12 18C13.3807 18 14.5 19.1193 14.5 20.5C14.5 21.8807 13.3807 23 12 23C10.6193 23 9.5 21.8807 9.5 20.5Z" fill="#144EE1"/>
<path id="Vector_9" d="M11.5097 8.87842C11.8142 8.70719 12.1858 8.70719 12.4903 8.87842L14.4903 10.0034C14.8051 10.1805 15 10.5137 15 10.875V13.125C15 13.4863 14.8051 13.8195 14.4903 13.9966L12.4903 15.1216C12.1858 15.2928 11.8142 15.2928 11.5097 15.1216L9.50974 13.9966C9.19486 13.8195 9 13.4863 9 13.125V10.875C9 10.5137 9.19486 10.1805 9.50974 10.0034L11.5097 8.87842Z" fill="#144EE1"/>
</g>
</svg>
