<svg width="40" height="40" viewBox="0 0 40 40" fill="none" xmlns="http://www.w3.org/2000/svg">
<g id="Frame 40974">
<rect width="40" height="40" rx="20" fill="#EEF6FF"/>
<g id="rocket_launch">
<mask id="mask0_110_5062" style="mask-type:alpha" maskUnits="userSpaceOnUse" x="7" y="8" width="25" height="25">
<rect id="Bounding box" x="7.99701" y="8.1792" width="24" height="24" fill="#D9D9D9"/>
</mask>
<g mask="url(#mask0_110_5062)">
<path id="rocket_launch_2" d="M14.122 20.3292C14.5553 19.2291 15.0762 18.1708 15.6845 17.1541C16.2928 16.1375 16.9803 15.1791 17.747 14.2791L16.447 14.0041C16.1137 13.9375 15.7887 13.9541 15.472 14.0541C15.1553 14.1541 14.8803 14.3208 14.647 14.5541L11.497 17.7041C11.247 17.9541 11.1512 18.2541 11.2095 18.6041C11.2678 18.9542 11.4637 19.1958 11.797 19.3292L14.122 20.3292ZM28.822 10.5791C27.0553 10.4958 25.3762 10.8375 23.7845 11.6041C22.1928 12.3708 20.772 13.3791 19.522 14.6291C18.722 15.4291 18.0178 16.2958 17.4095 17.2291C16.8012 18.1625 16.272 19.1458 15.822 20.1791C15.7387 20.3958 15.697 20.6166 15.697 20.8417C15.697 21.0667 15.7803 21.2625 15.947 21.4291L19.072 24.5541C19.2387 24.7208 19.4345 24.8041 19.6595 24.8041C19.8845 24.8041 20.1053 24.7625 20.322 24.6791C21.3553 24.2291 22.3387 23.7 23.272 23.0917C24.2053 22.4833 25.072 21.7792 25.872 20.9791C27.122 19.7291 28.1303 18.3083 28.897 16.7166C29.6637 15.125 30.0053 13.4458 29.922 11.6791C29.922 11.5458 29.8887 11.4125 29.822 11.2791C29.7553 11.1458 29.672 11.0291 29.572 10.9291C29.472 10.8291 29.3553 10.7458 29.222 10.6791C29.0887 10.6125 28.9553 10.5791 28.822 10.5791ZM22.472 18.0291C22.0887 17.6458 21.897 17.175 21.897 16.6166C21.897 16.0583 22.0887 15.5875 22.472 15.2041C22.8553 14.8208 23.3262 14.6291 23.8845 14.6291C24.4428 14.6291 24.9137 14.8208 25.297 15.2041C25.6803 15.5875 25.872 16.0583 25.872 16.6166C25.872 17.175 25.6803 17.6458 25.297 18.0291C24.9137 18.4125 24.4428 18.6041 23.8845 18.6041C23.3262 18.6041 22.8553 18.4125 22.472 18.0291ZM20.172 26.3791L21.172 28.7041C21.3053 29.0375 21.547 29.2375 21.897 29.3041C22.247 29.3708 22.547 29.2792 22.797 29.0292L25.947 25.8791C26.1803 25.6458 26.347 25.3666 26.447 25.0416C26.547 24.7166 26.5637 24.3875 26.497 24.0541L26.247 22.7541C25.3303 23.5208 24.3678 24.2083 23.3595 24.8166C22.3512 25.425 21.2887 25.9458 20.172 26.3791ZM12.047 24.2291C12.6303 23.6458 13.3387 23.35 14.172 23.3417C15.0053 23.3333 15.7137 23.6208 16.297 24.2041C16.8803 24.7875 17.172 25.4958 17.172 26.3291C17.172 27.1625 16.8803 27.8708 16.297 28.4541C15.497 29.2541 14.5512 29.7291 13.4595 29.8791C12.3678 30.0291 11.272 30.1791 10.172 30.3291C10.322 29.2291 10.4762 28.1333 10.6345 27.0416C10.7928 25.95 11.2637 25.0125 12.047 24.2291Z" fill="#8EC7FF"/>
</g>
</g>
</g>
</svg>
